<svg xmlns="http://www.w3.org/2000/svg" xmlns:xlink="http://www.w3.org/1999/xlink" width="2000" zoomAndPan="magnify" viewBox="0 0 1500 1499.999933" height="2000" preserveAspectRatio="xMidYMid meet" version="1.0"><defs><g/><clipPath id="f6335e1fd8"><path d="M 625 538 L 721.851562 538 L 721.851562 631 L 625 631 Z M 625 538 " clip-rule="nonzero"/></clipPath><clipPath id="e89788c365"><path d="M 176.949219 562 L 477 562 L 477 1044.34375 L 176.949219 1044.34375 Z M 176.949219 562 " clip-rule="nonzero"/></clipPath><clipPath id="e97223b380"><path d="M 81.351562 431 L 495 431 L 495 730 L 81.351562 730 Z M 81.351562 431 " clip-rule="nonzero"/></clipPath><clipPath id="ead93fa2fa"><rect x="0" width="969" y="0" height="287"/></clipPath><clipPath id="716283f76e"><rect x="0" width="425" y="0" height="49"/></clipPath></defs><g clip-path="url(#f6335e1fd8)"><path fill="#44a6d9" d="M 673.578125 538.417969 L 688.476562 573.484375 L 721.863281 573.484375 L 697.703125 597.046875 L 703.414062 630.28125 L 673.578125 614.5625 L 643.703125 630.28125 L 649.417969 597.046875 L 625.292969 573.484375 L 658.640625 573.484375 L 673.578125 538.417969 " fill-opacity="1" fill-rule="nonzero"/></g><path fill="#ffffff" d="M 565.730469 443.417969 L 575.777344 467.054688 L 598.292969 467.054688 L 582.011719 482.925781 L 585.859375 505.292969 L 565.730469 494.726562 L 545.640625 505.292969 L 549.449219 482.925781 L 533.203125 467.054688 L 555.683594 467.054688 L 565.730469 443.417969 " fill-opacity="1" fill-rule="nonzero"/><path fill="#44a6d9" d="M 497.726562 620.871094 L 504.339844 636.40625 L 519.089844 636.40625 L 508.410156 646.789062 L 510.949219 661.5 L 497.726562 654.554688 L 484.546875 661.5 L 487.085938 646.789062 L 476.40625 636.40625 L 491.15625 636.40625 L 497.726562 620.871094 " fill-opacity="1" fill-rule="nonzero"/><g clip-path="url(#e89788c365)"><path fill="#44a6d9" d="M 215.9375 769.722656 C 194.574219 895.046875 274.117188 1014.320312 395.59375 1044.34375 C 389.695312 1043.785156 383.71875 1043 377.746094 1041.953125 C 246.445312 1019.621094 158.089844 894.972656 180.460938 763.671875 C 202.828125 632.375 327.441406 543.980469 458.742188 566.351562 C 464.71875 567.394531 470.617188 568.628906 476.40625 570.046875 C 351.828125 558.171875 237.296875 644.359375 215.9375 769.722656 " fill-opacity="1" fill-rule="evenodd"/></g><path fill="#ffffff" d="M 580.554688 955.691406 C 382 1068.765625 186.023438 792.316406 358.4375 642.382812 C 352.910156 645.554688 347.460938 648.992188 342.15625 652.761719 C 255.222656 714.417969 234.683594 834.886719 296.296875 921.820312 C 357.953125 1008.757812 478.421875 1029.257812 565.355469 967.640625 C 570.660156 963.871094 575.738281 959.875 580.554688 955.691406 " fill-opacity="1" fill-rule="evenodd"/><g clip-path="url(#e97223b380)"><path fill="#ffffff" d="M 434.320312 500.589844 L 446.304688 529.53125 C 436.859375 528.523438 427.410156 528.035156 418 528.035156 C 353.582031 528.035156 290.773438 550.925781 241.105469 592.453125 C 224.601562 606.234375 209.921875 621.804688 197.191406 638.796875 L 184.640625 608.4375 L 183.074219 604.664062 L 170.898438 603.804688 L 131.242188 600.96875 L 102.972656 598.949219 L 101.851562 598.875 L 101.851562 682.972656 C 104.765625 684.691406 106.746094 687.828125 106.746094 691.414062 C 106.746094 694.476562 105.324219 697.238281 103.085938 698.992188 C 102.710938 699.328125 102.300781 699.628906 101.851562 699.851562 L 101.851562 709.078125 L 112.121094 729.613281 L 81.351562 729.613281 L 91.433594 709.449219 L 91.433594 700.414062 C 88.519531 698.730469 86.542969 695.59375 86.542969 691.972656 C 86.542969 688.574219 88.257812 685.585938 90.910156 683.832031 C 91.097656 683.683594 91.246094 683.535156 91.433594 683.421875 C 91.65625 683.273438 91.84375 683.121094 92.105469 682.972656 L 92.105469 598.203125 L 261.007812 437.515625 L 451.085938 432.773438 L 494.070312 431.691406 L 434.320312 500.589844 " fill-opacity="1" fill-rule="evenodd"/></g><g transform="matrix(1, 0, 0, 1, 364, 664)"><g clip-path="url(#ead93fa2fa)"><g fill="#ffffff" fill-opacity="1"><g transform="translate(1.298266, 204.715753)"><g><path d="M 121.296875 -188.09375 L 121.296875 -150.484375 L 56.546875 -150.484375 L 56.546875 -113.09375 L 118.5625 -113.09375 L 118.5625 -75.46875 L 56.546875 -75.46875 L 56.546875 -37.625 L 121.296875 -37.625 L 121.296875 0 L 13.6875 0 L 13.6875 -188.09375 Z M 121.296875 -188.09375 "/></g></g></g><g fill="#ffffff" fill-opacity="1"><g transform="translate(116.436532, 204.715753)"><g><path d="M 149.109375 0 L 100.3125 0 L 74.5625 -33.0625 L 48.796875 0 L 0 0 L 49.9375 -61.109375 L 7.0625 -116.96875 L 54.265625 -116.96875 L 74.5625 -89.828125 L 94.84375 -116.96875 L 142.046875 -116.96875 L 99.1875 -61.109375 Z M 149.109375 0 "/></g></g></g><g fill="#ffffff" fill-opacity="1"><g transform="translate(248.446674, 204.715753)"><g><path d="M 21.65625 -14.46875 C 10.71875 -26.40625 5.25 -41.035156 5.25 -58.359375 C 5.25 -75.691406 10.71875 -90.363281 21.65625 -102.375 C 32.601562 -114.382812 46.515625 -120.390625 63.390625 -120.390625 C 78.890625 -120.390625 91.65625 -115.523438 101.6875 -105.796875 L 101.6875 -116.96875 L 142.046875 -116.96875 L 142.046875 0 L 102.140625 0 L 102.140625 -13.21875 L 101.6875 -13.21875 C 91.65625 -2.125 78.890625 3.421875 63.390625 3.421875 C 46.515625 3.421875 32.601562 -2.539062 21.65625 -14.46875 Z M 55.96875 -78.203125 C 50.726562 -73.035156 48.109375 -66.421875 48.109375 -58.359375 C 48.109375 -50.304688 50.613281 -43.734375 55.625 -38.640625 C 60.644531 -33.554688 67.257812 -31.015625 75.46875 -31.015625 C 83.375 -31.015625 89.867188 -33.597656 94.953125 -38.765625 C 100.046875 -43.929688 102.59375 -50.46875 102.59375 -58.375 C 102.59375 -66.425781 99.972656 -73.035156 94.734375 -78.203125 C 89.492188 -83.367188 83.070312 -85.953125 75.46875 -85.953125 C 67.71875 -85.953125 61.21875 -83.367188 55.96875 -78.203125 Z M 55.96875 -78.203125 "/></g></g></g><g fill="#ffffff" fill-opacity="1"><g transform="translate(387.068783, 204.715753)"><g><path d="M 13.6875 0 L 13.6875 -116.96875 L 54.03125 -116.96875 L 54.03125 -104.65625 L 54.484375 -104.65625 C 64.972656 -115.144531 76.148438 -120.390625 88.015625 -120.390625 C 96.523438 -120.390625 104.503906 -118.640625 111.953125 -115.140625 C 119.398438 -111.640625 125.019531 -106.242188 128.8125 -98.953125 C 140.675781 -113.242188 153.597656 -120.390625 167.578125 -120.390625 C 180.046875 -120.390625 190.765625 -116.890625 199.734375 -109.890625 C 208.703125 -102.898438 213.1875 -91.957031 213.1875 -77.0625 L 213.1875 0 L 172.828125 0 L 172.828125 -66.125 C 172.828125 -72.351562 171.113281 -77.554688 167.6875 -81.734375 C 164.269531 -85.921875 159.140625 -88.015625 152.296875 -88.015625 C 146.367188 -88.015625 141.847656 -86.226562 138.734375 -82.65625 C 135.617188 -79.082031 133.910156 -74.785156 133.609375 -69.765625 L 133.609375 0 L 93.25 0 L 93.25 -66.125 C 93.25 -72.351562 91.535156 -77.554688 88.109375 -81.734375 C 84.691406 -85.921875 79.566406 -88.015625 72.734375 -88.015625 C 66.503906 -88.015625 61.828125 -86.070312 58.703125 -82.1875 C 55.585938 -78.3125 54.03125 -73.71875 54.03125 -68.40625 L 54.03125 0 Z M 13.6875 0 "/></g></g></g><g fill="#ffffff" fill-opacity="1"><g transform="translate(594.54638, 204.715753)"><g><path d="M 17.546875 -182.171875 C 22.265625 -186.878906 27.890625 -189.234375 34.421875 -189.234375 C 40.960938 -189.234375 46.585938 -186.878906 51.296875 -182.171875 C 56.015625 -177.460938 58.375 -171.835938 58.375 -165.296875 C 58.375 -158.765625 56.015625 -153.140625 51.296875 -148.421875 C 46.585938 -143.710938 40.960938 -141.359375 34.421875 -141.359375 C 27.890625 -141.359375 22.265625 -143.710938 17.546875 -148.421875 C 12.835938 -153.140625 10.484375 -158.765625 10.484375 -165.296875 C 10.484375 -171.835938 12.835938 -177.460938 17.546875 -182.171875 Z M 13.6875 -116.96875 L 13.6875 0 L 54.03125 0 L 54.03125 -116.96875 Z M 13.6875 -116.96875 "/></g></g></g><g fill="#ffffff" fill-opacity="1"><g transform="translate(646.301156, 204.715753)"><g><path d="M 183.765625 -105.34375 L 183.765625 -64.53125 C 178.898438 -42.1875 168.257812 -25.273438 151.84375 -13.796875 C 135.425781 -2.316406 117.113281 3.421875 96.90625 3.421875 C 71.519531 3.421875 49.894531 -6.078125 32.03125 -25.078125 C 14.175781 -44.078125 5.25 -67.03125 5.25 -93.9375 C 5.25 -121.289062 13.988281 -144.390625 31.46875 -163.234375 C 48.945312 -182.085938 70.757812 -191.515625 96.90625 -191.515625 C 127.457031 -191.515625 151.625 -180.800781 169.40625 -159.375 L 141.359375 -128.59375 C 131.328125 -144.707031 117.34375 -152.765625 99.40625 -152.765625 C 86.1875 -152.765625 74.898438 -147.023438 65.546875 -135.546875 C 56.203125 -124.066406 51.53125 -110.195312 51.53125 -93.9375 C 51.53125 -77.976562 56.203125 -64.335938 65.546875 -53.015625 C 74.898438 -41.691406 86.1875 -36.03125 99.40625 -36.03125 C 110.351562 -36.03125 119.890625 -39.332031 128.015625 -45.9375 C 136.148438 -52.550781 140.21875 -61.332031 140.21875 -72.28125 L 96.90625 -72.28125 L 96.90625 -105.34375 Z M 183.765625 -105.34375 "/></g></g></g><g fill="#ffffff" fill-opacity="1"><g transform="translate(818.210982, 204.715753)"><g><path d="M 24.734375 -13.90625 C 11.742188 -25.457031 5.25 -40.273438 5.25 -58.359375 C 5.25 -76.453125 12.007812 -91.3125 25.53125 -102.9375 C 39.0625 -114.570312 55.785156 -120.390625 75.703125 -120.390625 C 95.304688 -120.390625 111.832031 -114.535156 125.28125 -102.828125 C 138.738281 -91.117188 145.46875 -76.296875 145.46875 -58.359375 C 145.46875 -40.429688 138.890625 -25.648438 125.734375 -14.015625 C 112.585938 -2.390625 95.910156 3.421875 75.703125 3.421875 C 54.722656 3.421875 37.734375 -2.351562 24.734375 -13.90625 Z M 55.96875 -78.203125 C 50.726562 -73.035156 48.109375 -66.421875 48.109375 -58.359375 C 48.109375 -50.304688 50.613281 -43.734375 55.625 -38.640625 C 60.644531 -33.554688 67.257812 -31.015625 75.46875 -31.015625 C 83.375 -31.015625 89.867188 -33.597656 94.953125 -38.765625 C 100.046875 -43.929688 102.59375 -50.46875 102.59375 -58.375 C 102.59375 -66.425781 99.972656 -73.035156 94.734375 -78.203125 C 89.492188 -83.367188 83.070312 -85.953125 75.46875 -85.953125 C 67.71875 -85.953125 61.21875 -83.367188 55.96875 -78.203125 Z M 55.96875 -78.203125 "/></g></g></g></g></g><g transform="matrix(1, 0, 0, 1, 542, 891)"><g clip-path="url(#716283f76e)"><g fill="#ffffff" fill-opacity="1"><g transform="translate(2.576685, 37.409362)"><g><path d="M 13.15625 0.34375 C 10.945312 0.34375 8.992188 -0.101562 7.296875 -1 C 5.609375 -1.90625 4.285156 -3.285156 3.328125 -5.140625 C 2.378906 -6.992188 1.90625 -9.300781 1.90625 -12.0625 C 1.90625 -14.832031 2.378906 -17.144531 3.328125 -19 C 4.285156 -20.851562 5.609375 -22.226562 7.296875 -23.125 C 8.992188 -24.03125 10.945312 -24.484375 13.15625 -24.484375 C 15.375 -24.484375 17.320312 -24.035156 19 -23.140625 C 20.6875 -22.242188 22.003906 -20.863281 22.953125 -19 C 23.910156 -17.144531 24.390625 -14.832031 24.390625 -12.0625 C 24.390625 -9.300781 23.910156 -6.988281 22.953125 -5.125 C 22.003906 -3.269531 20.6875 -1.894531 19 -1 C 17.320312 -0.101562 15.375 0.34375 13.15625 0.34375 Z M 13.15625 -3.796875 C 15.207031 -3.796875 16.769531 -4.453125 17.84375 -5.765625 C 18.925781 -7.085938 19.46875 -9.1875 19.46875 -12.0625 C 19.46875 -14.945312 18.925781 -17.050781 17.84375 -18.375 C 16.769531 -19.695312 15.207031 -20.359375 13.15625 -20.359375 C 11.101562 -20.359375 9.53125 -19.695312 8.4375 -18.375 C 7.351562 -17.050781 6.8125 -14.945312 6.8125 -12.0625 C 6.8125 -9.1875 7.351562 -7.085938 8.4375 -5.765625 C 9.53125 -4.453125 11.101562 -3.796875 13.15625 -3.796875 Z M 13.15625 -3.796875 "/></g></g></g><g fill="#ffffff" fill-opacity="1"><g transform="translate(42.547033, 37.409362)"><g><path d="M 7.765625 0 L 3.140625 0 L 3.140625 -24.140625 L 8.609375 -24.140625 L 18.296875 -8.578125 L 18.71875 -8.65625 L 18.71875 -24.140625 L 23.3125 -24.140625 L 23.3125 0 L 18.421875 0 L 8.171875 -16.609375 L 7.765625 -16.546875 Z M 7.765625 0 "/></g></g></g><g fill="#ffffff" fill-opacity="1"><g transform="translate(82.68232, 37.409362)"><g><path d="M 7.90625 -24.140625 L 7.90625 -4 L 18.75 -4 L 18.75 0 L 3.140625 0 L 3.140625 -24.140625 Z M 7.90625 -24.140625 "/></g></g></g><g fill="#ffffff" fill-opacity="1"><g transform="translate(115.906594, 37.409362)"><g><path d="M 7.90625 0 L 3.140625 0 L 3.140625 -24.140625 L 7.90625 -24.140625 Z M 7.90625 0 "/></g></g></g><g fill="#ffffff" fill-opacity="1"><g transform="translate(140.652939, 37.409362)"><g><path d="M 7.765625 0 L 3.140625 0 L 3.140625 -24.140625 L 8.609375 -24.140625 L 18.296875 -8.578125 L 18.71875 -8.65625 L 18.71875 -24.140625 L 23.3125 -24.140625 L 23.3125 0 L 18.421875 0 L 8.171875 -16.609375 L 7.765625 -16.546875 Z M 7.765625 0 "/></g></g></g><g fill="#ffffff" fill-opacity="1"><g transform="translate(180.788226, 37.409362)"><g><path d="M 7.90625 -10.59375 L 7.90625 -4 L 19.4375 -4 L 19.4375 0 L 3.140625 0 L 3.140625 -24.140625 L 19.171875 -24.140625 L 19.171875 -20.140625 L 7.90625 -20.140625 L 7.90625 -14.5 L 17.75 -14.5 L 17.75 -10.59375 Z M 7.90625 -10.59375 "/></g></g></g><g fill="#ffffff" fill-opacity="1"><g transform="translate(215.21658, 37.409362)"><g/></g></g><g fill="#ffffff" fill-opacity="1"><g transform="translate(236.878558, 37.409362)"><g><path d="M 7.90625 -10.59375 L 7.90625 -4 L 19.4375 -4 L 19.4375 0 L 3.140625 0 L 3.140625 -24.140625 L 19.171875 -24.140625 L 19.171875 -20.140625 L 7.90625 -20.140625 L 7.90625 -14.5 L 17.75 -14.5 L 17.75 -10.59375 Z M 7.90625 -10.59375 "/></g></g></g><g fill="#ffffff" fill-opacity="1"><g transform="translate(271.306913, 37.409362)"><g><path d="M 5.296875 0 L 0.40625 0 L 7.5625 -12.421875 L 0.765625 -24.140625 L 5.828125 -24.140625 L 10.828125 -15.484375 L 11.25 -15.484375 L 16.328125 -24.140625 L 21.15625 -24.140625 L 14.34375 -12.421875 L 21.5 0 L 16.4375 0 L 11.078125 -9.3125 L 10.671875 -9.3125 Z M 5.296875 0 "/></g></g></g><g fill="#ffffff" fill-opacity="1"><g transform="translate(306.88985, 37.409362)"><g><path d="M 23.15625 0 L 18.140625 0 L 16.328125 -5.5625 L 7.078125 -5.5625 L 5.265625 0 L 0.359375 0 L 8.703125 -24.140625 L 14.828125 -24.140625 Z M 11.46875 -19.109375 L 8.375 -9.578125 L 15 -9.578125 L 11.890625 -19.109375 Z M 11.46875 -19.109375 "/></g></g></g><g fill="#ffffff" fill-opacity="1"><g transform="translate(344.0892, 37.409362)"><g><path d="M 7.515625 0 L 3.140625 0 L 3.140625 -24.140625 L 9.375 -24.140625 L 15.484375 -6.390625 L 15.828125 -6.390625 L 21.90625 -24.140625 L 28 -24.140625 L 28 0 L 23.484375 0 L 23.484375 -15.953125 L 23.0625 -16.015625 L 17.484375 0 L 13.5 0 L 7.921875 -16.015625 L 7.515625 -15.953125 Z M 7.515625 0 "/></g></g></g><g fill="#ffffff" fill-opacity="1"><g transform="translate(388.908792, 37.409362)"><g><path d="M 7.90625 -10.59375 L 7.90625 -4 L 19.4375 -4 L 19.4375 0 L 3.140625 0 L 3.140625 -24.140625 L 19.171875 -24.140625 L 19.171875 -20.140625 L 7.90625 -20.140625 L 7.90625 -14.5 L 17.75 -14.5 L 17.75 -10.59375 Z M 7.90625 -10.59375 "/></g></g></g></g></g></svg>