<svg xmlns="http://www.w3.org/2000/svg" xmlns:xlink="http://www.w3.org/1999/xlink" width="500" zoomAndPan="magnify" viewBox="0 0 375 127.500001" height="170" preserveAspectRatio="xMidYMid meet" version="1.0"><defs><g/><clipPath id="0daaed1498"><path d="M 154 25 L 171.597656 25 L 171.597656 43 L 154 43 Z M 154 25 " clip-rule="nonzero"/></clipPath><clipPath id="f4538c8dad"><path d="M 74.355469 30 L 128 30 L 128 116.027344 L 74.355469 116.027344 Z M 74.355469 30 " clip-rule="nonzero"/></clipPath><clipPath id="95d601c91f"><path d="M 57.292969 6.351562 L 131 6.351562 L 131 60 L 57.292969 60 Z M 57.292969 6.351562 " clip-rule="nonzero"/></clipPath><clipPath id="4f6088dc8c"><rect x="0" width="174" y="0" height="52"/></clipPath><clipPath id="37d41d1f71"><rect x="0" width="77" y="0" height="10"/></clipPath></defs><g clip-path="url(#0daaed1498)"><path fill="#44a6d9" d="M 162.980469 25.742188 L 165.640625 32 L 171.597656 32 L 167.285156 36.207031 L 168.304688 42.136719 L 162.980469 39.332031 L 157.648438 42.136719 L 158.667969 36.207031 L 154.363281 32 L 160.3125 32 L 162.980469 25.742188 " fill-opacity="1" fill-rule="nonzero"/></g><path fill="#ffffff" d="M 143.734375 8.789062 L 145.527344 13.007812 L 149.546875 13.007812 L 146.640625 15.839844 L 147.324219 19.832031 L 143.734375 17.945312 L 140.148438 19.832031 L 140.828125 15.839844 L 137.929688 13.007812 L 141.941406 13.007812 L 143.734375 8.789062 " fill-opacity="1" fill-rule="nonzero"/><path fill="#44a6d9" d="M 131.597656 40.457031 L 132.777344 43.230469 L 135.410156 43.230469 L 133.503906 45.082031 L 133.957031 47.707031 L 131.597656 46.46875 L 129.246094 47.707031 L 129.699219 45.082031 L 127.792969 43.230469 L 130.425781 43.230469 L 131.597656 40.457031 " fill-opacity="1" fill-rule="nonzero"/><g clip-path="url(#f4538c8dad)"><path fill="#44a6d9" d="M 81.3125 67.019531 C 77.5 89.386719 91.695312 110.671875 113.371094 116.027344 C 112.320312 115.929688 111.253906 115.789062 110.1875 115.601562 C 86.757812 111.617188 70.988281 89.371094 74.980469 65.941406 C 78.972656 42.511719 101.210938 26.738281 124.640625 30.730469 C 125.707031 30.914062 126.761719 31.136719 127.792969 31.386719 C 105.5625 29.269531 85.125 44.648438 81.3125 67.019531 " fill-opacity="1" fill-rule="evenodd"/></g><path fill="#ffffff" d="M 146.378906 100.207031 C 110.945312 120.386719 75.972656 71.050781 106.742188 44.296875 C 105.753906 44.863281 104.78125 45.476562 103.835938 46.148438 C 88.324219 57.152344 84.65625 78.648438 95.652344 94.164062 C 106.65625 109.675781 128.152344 113.335938 143.667969 102.339844 C 144.613281 101.667969 145.519531 100.953125 146.378906 100.207031 " fill-opacity="1" fill-rule="evenodd"/><g clip-path="url(#95d601c91f)"><path fill="#ffffff" d="M 120.28125 18.992188 L 122.421875 24.15625 C 120.734375 23.976562 119.050781 23.890625 117.371094 23.890625 C 105.875 23.890625 94.667969 27.976562 85.804688 35.386719 C 82.859375 37.847656 80.238281 40.625 77.964844 43.65625 L 75.726562 38.238281 L 75.449219 37.566406 L 73.273438 37.414062 L 66.199219 36.90625 L 61.152344 36.546875 L 60.953125 36.53125 L 60.953125 51.539062 C 61.472656 51.847656 61.824219 52.40625 61.824219 53.046875 C 61.824219 53.59375 61.574219 54.085938 61.171875 54.398438 C 61.105469 54.460938 61.03125 54.511719 60.953125 54.550781 L 60.953125 56.199219 L 62.785156 59.863281 L 57.292969 59.863281 L 59.09375 56.265625 L 59.09375 54.652344 C 58.574219 54.351562 58.222656 53.792969 58.222656 53.144531 C 58.222656 52.539062 58.527344 52.007812 59 51.695312 C 59.035156 51.667969 59.0625 51.640625 59.09375 51.621094 C 59.132812 51.59375 59.167969 51.566406 59.214844 51.539062 L 59.214844 36.414062 L 89.355469 7.738281 L 123.273438 6.890625 L 130.945312 6.699219 L 120.28125 18.992188 " fill-opacity="1" fill-rule="evenodd"/></g><g transform="matrix(1, 0, 0, 1, 129, 49)"><g clip-path="url(#4f6088dc8c)"><g fill="#ffffff" fill-opacity="1"><g transform="translate(0.732568, 36.792274)"><g><path d="M 21.640625 -33.5625 L 21.640625 -26.859375 L 10.09375 -26.859375 L 10.09375 -20.1875 L 21.15625 -20.1875 L 21.15625 -13.46875 L 10.09375 -13.46875 L 10.09375 -6.71875 L 21.640625 -6.71875 L 21.640625 0 L 2.4375 0 L 2.4375 -33.5625 Z M 21.640625 -33.5625 "/></g></g></g><g fill="#ffffff" fill-opacity="1"><g transform="translate(21.279253, 36.792274)"><g><path d="M 26.609375 0 L 17.90625 0 L 13.3125 -5.90625 L 8.703125 0 L 0 0 L 8.90625 -10.90625 L 1.265625 -20.875 L 9.6875 -20.875 L 13.3125 -16.03125 L 16.921875 -20.875 L 25.34375 -20.875 L 17.703125 -10.90625 Z M 26.609375 0 "/></g></g></g><g fill="#ffffff" fill-opacity="1"><g transform="translate(44.836762, 36.792274)"><g><path d="M 3.859375 -2.578125 C 1.910156 -4.710938 0.9375 -7.320312 0.9375 -10.40625 C 0.9375 -13.5 1.910156 -16.117188 3.859375 -18.265625 C 5.816406 -20.410156 8.300781 -21.484375 11.3125 -21.484375 C 14.082031 -21.484375 16.359375 -20.613281 18.140625 -18.875 L 18.140625 -20.875 L 25.34375 -20.875 L 25.34375 0 L 18.234375 0 L 18.234375 -2.359375 L 18.140625 -2.359375 C 16.359375 -0.378906 14.082031 0.609375 11.3125 0.609375 C 8.300781 0.609375 5.816406 -0.453125 3.859375 -2.578125 Z M 9.984375 -13.953125 C 9.046875 -13.035156 8.578125 -11.859375 8.578125 -10.421875 C 8.578125 -8.984375 9.023438 -7.804688 9.921875 -6.890625 C 10.816406 -5.984375 12 -5.53125 13.46875 -5.53125 C 14.875 -5.53125 16.03125 -5.988281 16.9375 -6.90625 C 17.851562 -7.832031 18.3125 -9.003906 18.3125 -10.421875 C 18.3125 -11.859375 17.84375 -13.035156 16.90625 -13.953125 C 15.96875 -14.878906 14.820312 -15.34375 13.46875 -15.34375 C 12.082031 -15.34375 10.921875 -14.878906 9.984375 -13.953125 Z M 9.984375 -13.953125 "/></g></g></g><g fill="#ffffff" fill-opacity="1"><g transform="translate(69.574192, 36.792274)"><g><path d="M 2.4375 0 L 2.4375 -20.875 L 9.640625 -20.875 L 9.640625 -18.671875 L 9.71875 -18.671875 C 11.59375 -20.546875 13.585938 -21.484375 15.703125 -21.484375 C 17.222656 -21.484375 18.644531 -21.171875 19.96875 -20.546875 C 21.300781 -19.921875 22.304688 -18.957031 22.984375 -17.65625 C 25.097656 -20.207031 27.40625 -21.484375 29.90625 -21.484375 C 32.125 -21.484375 34.035156 -20.859375 35.640625 -19.609375 C 37.242188 -18.359375 38.046875 -16.40625 38.046875 -13.75 L 38.046875 0 L 30.84375 0 L 30.84375 -11.796875 C 30.84375 -12.910156 30.535156 -13.835938 29.921875 -14.578125 C 29.316406 -15.328125 28.398438 -15.703125 27.171875 -15.703125 C 26.117188 -15.703125 25.3125 -15.382812 24.75 -14.75 C 24.195312 -14.113281 23.894531 -13.347656 23.84375 -12.453125 L 23.84375 0 L 16.640625 0 L 16.640625 -11.796875 C 16.640625 -12.910156 16.332031 -13.835938 15.71875 -14.578125 C 15.113281 -15.328125 14.203125 -15.703125 12.984375 -15.703125 C 11.867188 -15.703125 11.03125 -15.351562 10.46875 -14.65625 C 9.914062 -13.96875 9.640625 -13.148438 9.640625 -12.203125 L 9.640625 0 Z M 2.4375 0 "/></g></g></g><g fill="#ffffff" fill-opacity="1"><g transform="translate(106.59904, 36.792274)"><g><path d="M 3.125 -32.5 C 3.96875 -33.34375 4.972656 -33.765625 6.140625 -33.765625 C 7.304688 -33.765625 8.3125 -33.34375 9.15625 -32.5 C 10 -31.664062 10.421875 -30.664062 10.421875 -29.5 C 10.421875 -28.332031 10 -27.328125 9.15625 -26.484375 C 8.3125 -25.640625 7.304688 -25.21875 6.140625 -25.21875 C 4.972656 -25.21875 3.96875 -25.640625 3.125 -26.484375 C 2.289062 -27.328125 1.875 -28.332031 1.875 -29.5 C 1.875 -30.664062 2.289062 -31.664062 3.125 -32.5 Z M 2.4375 -20.875 L 2.4375 0 L 9.640625 0 L 9.640625 -20.875 Z M 2.4375 -20.875 "/></g></g></g><g fill="#ffffff" fill-opacity="1"><g transform="translate(115.834797, 36.792274)"><g><path d="M 32.796875 -18.796875 L 32.796875 -11.515625 C 31.921875 -7.523438 30.019531 -4.503906 27.09375 -2.453125 C 24.164062 -0.410156 20.898438 0.609375 17.296875 0.609375 C 12.765625 0.609375 8.90625 -1.082031 5.71875 -4.46875 C 2.53125 -7.863281 0.9375 -11.960938 0.9375 -16.765625 C 0.9375 -21.648438 2.492188 -25.769531 5.609375 -29.125 C 8.734375 -32.488281 12.628906 -34.171875 17.296875 -34.171875 C 22.742188 -34.171875 27.054688 -32.257812 30.234375 -28.4375 L 25.21875 -22.953125 C 23.4375 -25.828125 20.941406 -27.265625 17.734375 -27.265625 C 15.378906 -27.265625 13.367188 -26.238281 11.703125 -24.1875 C 10.035156 -22.132812 9.203125 -19.660156 9.203125 -16.765625 C 9.203125 -13.910156 10.035156 -11.472656 11.703125 -9.453125 C 13.367188 -7.429688 15.378906 -6.421875 17.734375 -6.421875 C 19.691406 -6.421875 21.394531 -7.007812 22.84375 -8.1875 C 24.289062 -9.375 25.015625 -10.941406 25.015625 -12.890625 L 17.296875 -12.890625 L 17.296875 -18.796875 Z M 32.796875 -18.796875 "/></g></g></g><g fill="#ffffff" fill-opacity="1"><g transform="translate(146.512495, 36.792274)"><g><path d="M 4.40625 -2.484375 C 2.09375 -4.546875 0.9375 -7.191406 0.9375 -10.421875 C 0.9375 -13.648438 2.140625 -16.300781 4.546875 -18.375 C 6.960938 -20.445312 9.953125 -21.484375 13.515625 -21.484375 C 17.003906 -21.484375 19.945312 -20.4375 22.34375 -18.34375 C 24.75 -16.257812 25.953125 -13.613281 25.953125 -10.40625 C 25.953125 -7.207031 24.78125 -4.570312 22.4375 -2.5 C 20.09375 -0.425781 17.117188 0.609375 13.515625 0.609375 C 9.765625 0.609375 6.726562 -0.421875 4.40625 -2.484375 Z M 9.984375 -13.953125 C 9.046875 -13.035156 8.578125 -11.859375 8.578125 -10.421875 C 8.578125 -8.984375 9.023438 -7.804688 9.921875 -6.890625 C 10.816406 -5.984375 12 -5.53125 13.46875 -5.53125 C 14.875 -5.53125 16.03125 -5.988281 16.9375 -6.90625 C 17.851562 -7.832031 18.3125 -9.003906 18.3125 -10.421875 C 18.3125 -11.859375 17.84375 -13.035156 16.90625 -13.953125 C 15.96875 -14.878906 14.820312 -15.34375 13.46875 -15.34375 C 12.082031 -15.34375 10.921875 -14.878906 9.984375 -13.953125 Z M 9.984375 -13.953125 "/></g></g></g></g></g><g transform="matrix(1, 0, 0, 1, 161, 89)"><g clip-path="url(#37d41d1f71)"><g fill="#ffffff" fill-opacity="1"><g transform="translate(0.7252, 7.444728)"><g><path d="M 2.34375 0.0625 C 1.945312 0.0625 1.597656 -0.015625 1.296875 -0.171875 C 0.992188 -0.335938 0.757812 -0.582031 0.59375 -0.90625 C 0.425781 -1.238281 0.34375 -1.65625 0.34375 -2.15625 C 0.34375 -2.644531 0.425781 -3.054688 0.59375 -3.390625 C 0.757812 -3.722656 0.992188 -3.96875 1.296875 -4.125 C 1.597656 -4.289062 1.945312 -4.375 2.34375 -4.375 C 2.738281 -4.375 3.085938 -4.289062 3.390625 -4.125 C 3.691406 -3.96875 3.925781 -3.722656 4.09375 -3.390625 C 4.257812 -3.054688 4.34375 -2.644531 4.34375 -2.15625 C 4.34375 -1.65625 4.257812 -1.238281 4.09375 -0.90625 C 3.925781 -0.582031 3.691406 -0.335938 3.390625 -0.171875 C 3.085938 -0.015625 2.738281 0.0625 2.34375 0.0625 Z M 2.34375 -0.671875 C 2.707031 -0.671875 2.984375 -0.785156 3.171875 -1.015625 C 3.367188 -1.253906 3.46875 -1.632812 3.46875 -2.15625 C 3.46875 -2.664062 3.367188 -3.035156 3.171875 -3.265625 C 2.984375 -3.503906 2.707031 -3.625 2.34375 -3.625 C 1.976562 -3.625 1.695312 -3.503906 1.5 -3.265625 C 1.3125 -3.035156 1.21875 -2.664062 1.21875 -2.15625 C 1.21875 -1.632812 1.3125 -1.253906 1.5 -1.015625 C 1.695312 -0.785156 1.976562 -0.671875 2.34375 -0.671875 Z M 2.34375 -0.671875 "/></g></g></g><g fill="#ffffff" fill-opacity="1"><g transform="translate(7.857999, 7.444728)"><g><path d="M 1.390625 0 L 0.5625 0 L 0.5625 -4.3125 L 1.53125 -4.3125 L 3.265625 -1.53125 L 3.34375 -1.546875 L 3.34375 -4.3125 L 4.15625 -4.3125 L 4.15625 0 L 3.28125 0 L 1.453125 -2.96875 L 1.390625 -2.953125 Z M 1.390625 0 "/></g></g></g><g fill="#ffffff" fill-opacity="1"><g transform="translate(15.020232, 7.444728)"><g><path d="M 1.40625 -4.3125 L 1.40625 -0.71875 L 3.34375 -0.71875 L 3.34375 0 L 0.5625 0 L 0.5625 -4.3125 Z M 1.40625 -4.3125 "/></g></g></g><g fill="#ffffff" fill-opacity="1"><g transform="translate(20.949179, 7.444728)"><g><path d="M 1.40625 0 L 0.5625 0 L 0.5625 -4.3125 L 1.40625 -4.3125 Z M 1.40625 0 "/></g></g></g><g fill="#ffffff" fill-opacity="1"><g transform="translate(25.36522, 7.444728)"><g><path d="M 1.390625 0 L 0.5625 0 L 0.5625 -4.3125 L 1.53125 -4.3125 L 3.265625 -1.53125 L 3.34375 -1.546875 L 3.34375 -4.3125 L 4.15625 -4.3125 L 4.15625 0 L 3.28125 0 L 1.453125 -2.96875 L 1.390625 -2.953125 Z M 1.390625 0 "/></g></g></g><g fill="#ffffff" fill-opacity="1"><g transform="translate(32.527453, 7.444728)"><g><path d="M 1.40625 -1.890625 L 1.40625 -0.71875 L 3.46875 -0.71875 L 3.46875 0 L 0.5625 0 L 0.5625 -4.3125 L 3.421875 -4.3125 L 3.421875 -3.59375 L 1.40625 -3.59375 L 1.40625 -2.578125 L 3.171875 -2.578125 L 3.171875 -1.890625 Z M 1.40625 -1.890625 "/></g></g></g><g fill="#ffffff" fill-opacity="1"><g transform="translate(38.671271, 7.444728)"><g/></g></g><g fill="#ffffff" fill-opacity="1"><g transform="translate(42.5369, 7.444728)"><g><path d="M 1.40625 -1.890625 L 1.40625 -0.71875 L 3.46875 -0.71875 L 3.46875 0 L 0.5625 0 L 0.5625 -4.3125 L 3.421875 -4.3125 L 3.421875 -3.59375 L 1.40625 -3.59375 L 1.40625 -2.578125 L 3.171875 -2.578125 L 3.171875 -1.890625 Z M 1.40625 -1.890625 "/></g></g></g><g fill="#ffffff" fill-opacity="1"><g transform="translate(48.680718, 7.444728)"><g><path d="M 0.953125 0 L 0.078125 0 L 1.34375 -2.21875 L 0.140625 -4.3125 L 1.046875 -4.3125 L 1.9375 -2.765625 L 2 -2.765625 L 2.90625 -4.3125 L 3.765625 -4.3125 L 2.5625 -2.21875 L 3.828125 0 L 2.9375 0 L 1.96875 -1.65625 L 1.90625 -1.65625 Z M 0.953125 0 "/></g></g></g><g fill="#ffffff" fill-opacity="1"><g transform="translate(55.030573, 7.444728)"><g><path d="M 4.125 0 L 3.234375 0 L 2.90625 -1 L 1.265625 -1 L 0.9375 0 L 0.0625 0 L 1.546875 -4.3125 L 2.640625 -4.3125 Z M 2.046875 -3.40625 L 1.5 -1.703125 L 2.671875 -1.703125 L 2.125 -3.40625 Z M 2.046875 -3.40625 "/></g></g></g><g fill="#ffffff" fill-opacity="1"><g transform="translate(61.668882, 7.444728)"><g><path d="M 1.34375 0 L 0.5625 0 L 0.5625 -4.3125 L 1.671875 -4.3125 L 2.765625 -1.140625 L 2.828125 -1.140625 L 3.90625 -4.3125 L 5 -4.3125 L 5 0 L 4.1875 0 L 4.1875 -2.84375 L 4.109375 -2.859375 L 3.125 0 L 2.40625 0 L 1.40625 -2.859375 L 1.34375 -2.84375 Z M 1.34375 0 "/></g></g></g><g fill="#ffffff" fill-opacity="1"><g transform="translate(69.66704, 7.444728)"><g><path d="M 1.40625 -1.890625 L 1.40625 -0.71875 L 3.46875 -0.71875 L 3.46875 0 L 0.5625 0 L 0.5625 -4.3125 L 3.421875 -4.3125 L 3.421875 -3.59375 L 1.40625 -3.59375 L 1.40625 -2.578125 L 3.171875 -2.578125 L 3.171875 -1.890625 Z M 1.40625 -1.890625 "/></g></g></g></g></g></svg>